<?xml version="1.0" encoding="UTF-8"?>
<!DOCTYPE svg PUBLIC "-//W3C//DTD SVG 1.1//EN" "http://www.w3.org/Graphics/SVG/1.1/DTD/svg11.dtd">
<svg xmlns="http://www.w3.org/2000/svg" version="1.1" width="225px" height="225px" style="shape-rendering:geometricPrecision; text-rendering:geometricPrecision; image-rendering:optimizeQuality; fill-rule:evenodd; clip-rule:evenodd" xmlns:xlink="http://www.w3.org/1999/xlink">
<g><path style="opacity:1" fill="#fefefd" d="M -0.5,-0.5 C 74.5,-0.5 149.5,-0.5 224.5,-0.5C 224.5,74.5 224.5,149.5 224.5,224.5C 149.5,224.5 74.5,224.5 -0.5,224.5C -0.5,149.5 -0.5,74.5 -0.5,-0.5 Z"/></g>
<g><path style="opacity:1" fill="#616163" d="M 175.5,25.5 C 175.5,66.5 175.5,107.5 175.5,148.5C 168.167,148.5 160.833,148.5 153.5,148.5C 153.5,128.167 153.5,107.833 153.5,87.5C 144.5,87.5 135.5,87.5 126.5,87.5C 125.503,107.66 125.17,127.993 125.5,148.5C 118.167,148.5 110.833,148.5 103.5,148.5C 103.333,120.165 103.5,91.8314 104,63.5C 109.65,40.901 124.15,28.401 147.5,26C 156.827,25.5002 166.161,25.3335 175.5,25.5 Z"/></g>
<g><path style="opacity:1" fill="#b8cc44" d="M 74.5,27.5 C 79.1522,27.9981 83.8189,28.3314 88.5,28.5C 94.2978,29.7451 99.6311,32.2451 104.5,36C 106.297,37.5941 107.297,39.5941 107.5,42C 105.492,46.5176 103.325,51.0176 101,55.5C 100.024,64.48 99.1911,73.48 98.5,82.5C 91.8333,83.8333 91.8333,85.1667 98.5,86.5C 99.4996,105.822 99.8329,125.155 99.5,144.5C 95.4029,146.448 91.0696,147.948 86.5,149C 84.5273,149.495 82.5273,149.662 80.5,149.5C 67.5,149.5 54.5,149.5 41.5,149.5C 41.5,108.833 41.5,68.1667 41.5,27.5C 52.5,27.5 63.5,27.5 74.5,27.5 Z"/></g>
<g><path style="opacity:1" fill="#e6edb7" d="M 74.5,27.5 C 74.5,27.1667 74.5,26.8333 74.5,26.5C 79.4338,26.2291 84.1004,26.8958 88.5,28.5C 83.8189,28.3314 79.1522,27.9981 74.5,27.5 Z"/></g>
<g><path style="opacity:1" fill="#b1b1b1" d="M 175.5,25.5 C 176.499,66.6633 176.832,107.997 176.5,149.5C 168.648,149.825 160.982,149.492 153.5,148.5C 160.833,148.5 168.167,148.5 175.5,148.5C 175.5,107.5 175.5,66.5 175.5,25.5 Z"/></g>
<g><path style="opacity:1" fill="#b9ca5b" d="M 74.5,26.5 C 74.5,26.8333 74.5,27.1667 74.5,27.5C 63.5,27.5 52.5,27.5 41.5,27.5C 41.5,68.1667 41.5,108.833 41.5,149.5C 54.5,149.5 67.5,149.5 80.5,149.5C 67.3438,150.496 54.0105,150.829 40.5,150.5C 40.5,109.167 40.5,67.8333 40.5,26.5C 51.8333,26.5 63.1667,26.5 74.5,26.5 Z"/></g>
<g><path style="opacity:1" fill="#fcfcfc" d="M 148.5,31.5 C 150.167,31.5 151.833,31.5 153.5,31.5C 153.5,47.5 153.5,63.5 153.5,79.5C 144.5,79.5 135.5,79.5 126.5,79.5C 126.334,72.1591 126.5,64.8258 127,57.5C 129.336,44.6778 136.503,36.0111 148.5,31.5 Z"/></g>
<g><path style="opacity:1" fill="#fefefb" d="M 64.5,33.5 C 70.0286,33.7151 75.3619,34.8818 80.5,37C 82.0488,38.214 83.2155,39.714 84,41.5C 84.8324,52.5151 84.6658,63.5151 83.5,74.5C 79.7781,77.8615 75.4447,79.8615 70.5,80.5C 68.5,80.5 66.5,80.5 64.5,80.5C 64.5,64.8333 64.5,49.1667 64.5,33.5 Z"/></g>
<g><path style="opacity:1" fill="#f7fcd5" d="M 64.5,33.5 C 64.5,49.1667 64.5,64.8333 64.5,80.5C 66.5,80.5 68.5,80.5 70.5,80.5C 68.3926,81.4682 66.0593,81.8016 63.5,81.5C 63.1703,65.3246 63.5036,49.3246 64.5,33.5 Z"/></g>
<g><path style="opacity:1" fill="#fefefb" d="M 70.5,88.5 C 75.8769,89.1054 80.3769,91.4387 84,95.5C 84.6667,109.5 84.6667,123.5 84,137.5C 79.7309,140.222 75.2309,142.222 70.5,143.5C 68.5,143.5 66.5,143.5 64.5,143.5C 64.5,125.167 64.5,106.833 64.5,88.5C 66.5,88.5 68.5,88.5 70.5,88.5 Z"/></g>
<g><path style="opacity:1" fill="#989898" d="M 126.5,87.5 C 126.5,108.167 126.5,128.833 126.5,149.5C 118.648,149.825 110.982,149.492 103.5,148.5C 110.833,148.5 118.167,148.5 125.5,148.5C 125.17,127.993 125.503,107.66 126.5,87.5 Z"/></g>
<g><path style="opacity:1" fill="#f5fad0" d="M 70.5,88.5 C 68.5,88.5 66.5,88.5 64.5,88.5C 64.5,106.833 64.5,125.167 64.5,143.5C 66.5,143.5 68.5,143.5 70.5,143.5C 68.3926,144.468 66.0593,144.802 63.5,144.5C 63.5,125.5 63.5,106.5 63.5,87.5C 66.0593,87.1984 68.3926,87.5318 70.5,88.5 Z"/></g>
<g><path style="opacity:1" fill="#616161" d="M 41.5,158.5 C 44.5184,158.335 47.5184,158.502 50.5,159C 54.977,161.686 55.6436,165.186 52.5,169.5C 57.4654,172.852 57.7987,176.685 53.5,181C 49.6049,182.266 45.6049,182.766 41.5,182.5C 41.5,174.5 41.5,166.5 41.5,158.5 Z"/></g>
<g><path style="opacity:1" fill="#5f5f5f" d="M 78.5,158.5 C 79.5,158.5 80.5,158.5 81.5,158.5C 81.3339,164.176 81.5006,169.843 82,175.5C 84.0527,179.292 87.2194,180.458 91.5,179C 92.3333,178.167 93.1667,177.333 94,176.5C 94.4995,170.509 94.6662,164.509 94.5,158.5C 95.5,158.5 96.5,158.5 97.5,158.5C 97.6662,164.842 97.4995,171.175 97,177.5C 95.2003,181.235 92.2003,182.902 88,182.5C 84.7997,182.853 82.133,181.853 80,179.5C 78.6156,172.589 78.1156,165.589 78.5,158.5 Z"/></g>
<g><path style="opacity:1" fill="#5b5b5b" d="M 100.5,158.5 C 105.5,158.5 110.5,158.5 115.5,158.5C 115.5,159.5 115.5,160.5 115.5,161.5C 113.5,161.5 111.5,161.5 109.5,161.5C 109.5,168.5 109.5,175.5 109.5,182.5C 108.5,182.5 107.5,182.5 106.5,182.5C 106.5,175.5 106.5,168.5 106.5,161.5C 104.5,161.5 102.5,161.5 100.5,161.5C 100.5,160.5 100.5,159.5 100.5,158.5 Z"/></g>
<g><path style="opacity:1" fill="#5b5b5b" d="M 140.5,158.5 C 145.5,158.5 150.5,158.5 155.5,158.5C 155.5,159.5 155.5,160.5 155.5,161.5C 153.5,161.5 151.5,161.5 149.5,161.5C 149.5,168.5 149.5,175.5 149.5,182.5C 148.5,182.5 147.5,182.5 146.5,182.5C 146.5,175.5 146.5,168.5 146.5,161.5C 144.5,161.5 142.5,161.5 140.5,161.5C 140.5,160.5 140.5,159.5 140.5,158.5 Z"/></g>
<g><path style="opacity:1" fill="#f0f0f0" d="M 44.5,161.5 C 51.1904,160.331 52.8571,162.497 49.5,168C 47.8659,168.494 46.1992,168.66 44.5,168.5C 44.5,166.167 44.5,163.833 44.5,161.5 Z"/></g>
<g><path style="opacity:1" fill="#585858" d="M 118.5,158.5 C 119.5,158.5 120.5,158.5 121.5,158.5C 121.5,166.5 121.5,174.5 121.5,182.5C 120.5,182.5 119.5,182.5 118.5,182.5C 118.5,174.5 118.5,166.5 118.5,158.5 Z"/></g>
<g><path style="opacity:1" fill="#646465" d="M 163.5,158.5 C 165.144,158.286 166.644,158.62 168,159.5C 171.139,167.087 173.972,174.753 176.5,182.5C 175.178,182.67 174.011,182.337 173,181.5C 172.163,179.649 171.329,177.816 170.5,176C 167.183,175.502 163.85,175.335 160.5,175.5C 160.313,177.564 159.813,179.564 159,181.5C 157.989,182.337 156.822,182.67 155.5,182.5C 157.965,174.438 160.632,166.438 163.5,158.5 Z"/></g>
<g><path style="opacity:1" fill="#eeeeee" d="M 165.5,163.5 C 167.006,165.975 168.339,168.642 169.5,171.5C 167.167,172.833 164.833,172.833 162.5,171.5C 163.508,168.805 164.508,166.138 165.5,163.5 Z"/></g>
<g><path style="opacity:1" fill="#646464" d="M 64.5,158.5 C 65.9778,158.238 67.3112,158.571 68.5,159.5C 71.5,166.833 74.5,174.167 77.5,181.5C 76.1667,182.833 74.8333,182.833 73.5,181.5C 72.8333,179.833 72.1667,178.167 71.5,176.5C 68.1667,175.167 64.8333,175.167 61.5,176.5C 60.8333,178.167 60.1667,179.833 59.5,181.5C 58.277,182.614 56.9437,182.781 55.5,182C 58.6001,174.199 61.6001,166.365 64.5,158.5 Z"/></g>
<g><path style="opacity:1" fill="#f1f1f1" d="M 65.5,164.5 C 68.1347,166.339 69.4681,169.006 69.5,172.5C 67.5,172.5 65.5,172.5 63.5,172.5C 63.9628,169.779 64.6295,167.112 65.5,164.5 Z"/></g>
<g><path style="opacity:1" fill="#666666" d="M 128.5,158.5 C 131.5,158.5 134.5,158.5 137.5,158.5C 137.5,159.5 137.5,160.5 137.5,161.5C 134.813,161.336 132.146,161.503 129.5,162C 128.065,164.267 128.398,166.267 130.5,168C 136.784,168.932 139.617,172.432 139,178.5C 135.692,182.327 131.526,183.494 126.5,182C 124.717,180.933 124.217,179.433 125,177.5C 127.917,179.393 131.084,179.893 134.5,179C 135.833,177 135.833,175 134.5,173C 130.793,172.064 127.626,170.231 125,167.5C 123.98,163.553 125.147,160.553 128.5,158.5 Z"/></g>
<g><path style="opacity:1" fill="#f3f3f3" d="M 44.5,171.5 C 46.5273,171.338 48.5273,171.505 50.5,172C 53.1667,174.333 53.1667,176.667 50.5,179C 48.5273,179.495 46.5273,179.662 44.5,179.5C 44.5,176.833 44.5,174.167 44.5,171.5 Z"/></g>
<g><path style="opacity:1" fill="#bfce6a" d="M 106.5,185.5 C 107.675,185.281 108.675,185.614 109.5,186.5C 107.948,187.798 106.948,187.465 106.5,185.5 Z"/></g>
<g><path style="opacity:1" fill="#c4d36f" d="M 74.5,189.5 C 82.4863,188.998 84.4863,192.165 80.5,199C 74.1658,200.329 71.3325,197.829 72,191.5C 72.9947,190.934 73.828,190.267 74.5,189.5 Z"/></g>
<g><path style="opacity:1" fill="#c2d26a" d="M 141.5,183.5 C 142.5,183.5 143.5,183.5 144.5,183.5C 144.5,188.833 144.5,194.167 144.5,199.5C 140.993,200.006 137.826,199.34 135,197.5C 134.061,192.275 136.228,189.608 141.5,189.5C 141.5,187.5 141.5,185.5 141.5,183.5 Z"/></g>
<g><path style="opacity:1" fill="#fcfdf0" d="M 137.5,191.5 C 138.833,191.5 140.167,191.5 141.5,191.5C 141.5,193.5 141.5,195.5 141.5,197.5C 140.167,197.5 138.833,197.5 137.5,197.5C 137.5,195.5 137.5,193.5 137.5,191.5 Z"/></g>
<g><path style="opacity:1" fill="#fbfcec" d="M 75.5,191.5 C 79.0681,191.759 80.4015,193.759 79.5,197.5C 74.7398,197.799 73.4064,195.799 75.5,191.5 Z"/></g>
<g><path style="opacity:1" fill="#c8d57b" d="M 106.5,189.5 C 107.5,189.5 108.5,189.5 109.5,189.5C 109.5,192.833 109.5,196.167 109.5,199.5C 108.5,199.5 107.5,199.5 106.5,199.5C 106.5,196.167 106.5,192.833 106.5,189.5 Z"/></g>
<g><path style="opacity:1" fill="#c2d26a" d="M 171.5,189.5 C 176.443,189.288 177.11,190.288 173.5,192.5C 175.307,193.395 176.64,194.728 177.5,196.5C 175.886,199.427 173.553,200.094 170.5,198.5C 171.833,197.833 173.167,197.167 174.5,196.5C 170.975,195.127 169.975,192.794 171.5,189.5 Z"/></g>
<g><path style="opacity:1" fill="#c4d36b" d="M 119.5,189.5 C 121.861,189.674 124.194,190.007 126.5,190.5C 126.274,193.249 126.607,195.916 127.5,198.5C 124.33,198.681 120.997,199.014 117.5,199.5C 116.603,194.728 118.603,192.395 123.5,192.5C 121.668,191.943 120.335,190.943 119.5,189.5 Z"/></g>
<g><path style="opacity:1" fill="#fafceb" d="M 120.5,195.5 C 121.675,195.281 122.675,195.614 123.5,196.5C 121.948,197.798 120.948,197.465 120.5,195.5 Z"/></g>
<g><path style="opacity:1" fill="#c0d068" d="M 58.5,189.5 C 63.443,189.288 64.1097,190.288 60.5,192.5C 62.3068,193.395 63.6401,194.728 64.5,196.5C 64.3918,197.442 64.0585,198.275 63.5,199C 57.6562,199.398 57.3228,198.565 62.5,196.5C 58.432,195.483 57.0987,193.15 58.5,189.5 Z"/></g>
<g><path style="opacity:1" fill="#c1d069" d="M 155.5,189.5 C 162.628,189.706 164.294,192.873 160.5,199C 158.19,199.497 155.857,199.663 153.5,199.5C 153.277,197.658 152.943,195.825 152.5,194C 152.557,191.791 153.557,190.291 155.5,189.5 Z"/></g>
<g><path style="opacity:1" fill="#fcfdee" d="M 156.5,191.5 C 160.35,191.701 161.35,193.534 159.5,197C 158.207,197.49 156.873,197.657 155.5,197.5C 155.325,195.379 155.659,193.379 156.5,191.5 Z"/></g>
<g><path style="opacity:1" fill="#c1d168" d="M 42.5,189.5 C 44.8333,189.5 47.1667,189.5 49.5,189.5C 49.073,192.788 49.7397,195.788 51.5,198.5C 48.2913,199.787 45.1247,199.787 42,198.5C 40.948,194.707 42.448,192.707 46.5,192.5C 44.6684,191.943 43.3351,190.943 42.5,189.5 Z"/></g>
<g><path style="opacity:1" fill="#fdfdf5" d="M 44.5,195.5 C 46.337,195.639 46.6704,196.306 45.5,197.5C 44.7025,197.043 44.3691,196.376 44.5,195.5 Z"/></g>
<g><path style="opacity:1" fill="#bfcf65" d="M 92.5,189.5 C 99.6619,189.613 99.9952,190.613 93.5,192.5C 92.2532,194.042 92.2532,195.542 93.5,197C 95.2556,197.202 96.9223,197.702 98.5,198.5C 95.9659,199.777 93.4659,199.777 91,198.5C 90.0935,195.156 90.5935,192.156 92.5,189.5 Z"/></g>
<g><path style="opacity:1" fill="#e79790" d="M 40.5,202.5 C 85.5049,202.167 130.505,202.5 175.5,203.5C 153,203.833 130.5,204.167 108,204.5C 85.1566,204.5 62.6566,203.833 40.5,202.5 Z"/></g>
</svg>
